<mxfile host="65bd71144e">
    <diagram id="7quIwQrmMsvoDLrLiXsZ" name="Page-1">
        <mxGraphModel dx="2131" dy="1813" grid="1" gridSize="10" guides="1" tooltips="1" connect="1" arrows="1" fold="1" page="1" pageScale="1" pageWidth="850" pageHeight="1100" math="0" shadow="0">
            <root>
                <mxCell id="0"/>
                <mxCell id="1" parent="0"/>
                <mxCell id="49" value="" style="rounded=0;whiteSpace=wrap;html=1;fontSize=13;" vertex="1" parent="1">
                    <mxGeometry x="-160" y="-880" width="750" height="720" as="geometry"/>
                </mxCell>
                <mxCell id="4" value="html" style="rounded=1;whiteSpace=wrap;html=1;" vertex="1" parent="1">
                    <mxGeometry x="-115" y="-250" width="565" height="60" as="geometry"/>
                </mxCell>
                <mxCell id="5" value="handlbars" style="rounded=1;whiteSpace=wrap;html=1;" vertex="1" parent="1">
                    <mxGeometry x="420" y="-360" width="130" height="60" as="geometry"/>
                </mxCell>
                <mxCell id="6" value="" style="shape=crossbar;whiteSpace=wrap;html=1;rounded=1;direction=south;" vertex="1" parent="1">
                    <mxGeometry x="430" y="-300" width="20" height="50" as="geometry"/>
                </mxCell>
                <mxCell id="7" value="css" style="rounded=1;whiteSpace=wrap;html=1;" vertex="1" parent="1">
                    <mxGeometry x="270" y="-360" width="130" height="60" as="geometry"/>
                </mxCell>
                <mxCell id="8" value="" style="shape=crossbar;whiteSpace=wrap;html=1;rounded=1;direction=south;" vertex="1" parent="1">
                    <mxGeometry x="320" y="-300" width="20" height="50" as="geometry"/>
                </mxCell>
                <mxCell id="9" value="provide email" style="rounded=1;whiteSpace=wrap;html=1;" vertex="1" parent="1">
                    <mxGeometry x="-115" y="-770" width="120" height="60" as="geometry"/>
                </mxCell>
                <mxCell id="10" value="create profile page" style="rounded=1;whiteSpace=wrap;html=1;" vertex="1" parent="1">
                    <mxGeometry x="-100" y="-380" width="120" height="60" as="geometry"/>
                </mxCell>
                <mxCell id="11" value="direct to main" style="rounded=1;whiteSpace=wrap;html=1;" vertex="1" parent="1">
                    <mxGeometry x="88.52999999999997" y="-464.75" width="120" height="60" as="geometry"/>
                </mxCell>
                <mxCell id="12" value="if failed fix pw" style="rounded=1;whiteSpace=wrap;html=1;" vertex="1" parent="1">
                    <mxGeometry x="80" y="-600" width="120" height="60" as="geometry"/>
                </mxCell>
                <mxCell id="13" value="" style="rounded=1;whiteSpace=wrap;html=1;" vertex="1" parent="1">
                    <mxGeometry x="330" y="-630" width="120" height="60" as="geometry"/>
                </mxCell>
                <mxCell id="14" value="" style="rounded=1;whiteSpace=wrap;html=1;" vertex="1" parent="1">
                    <mxGeometry x="330" y="-700" width="120" height="60" as="geometry"/>
                </mxCell>
                <mxCell id="15" value="" style="rounded=1;whiteSpace=wrap;html=1;" vertex="1" parent="1">
                    <mxGeometry x="330" y="-770" width="120" height="60" as="geometry"/>
                </mxCell>
                <mxCell id="16" value="create password" style="rounded=1;whiteSpace=wrap;html=1;" vertex="1" parent="1">
                    <mxGeometry x="-115" y="-590" width="120" height="60" as="geometry"/>
                </mxCell>
                <mxCell id="17" value="confirm password" style="rounded=1;whiteSpace=wrap;html=1;" vertex="1" parent="1">
                    <mxGeometry x="-115" y="-500" width="120" height="60" as="geometry"/>
                </mxCell>
                <mxCell id="18" value="create user name" style="rounded=1;whiteSpace=wrap;html=1;" vertex="1" parent="1">
                    <mxGeometry x="-115" y="-680" width="120" height="60" as="geometry"/>
                </mxCell>
                <mxCell id="34" value="sign up" style="rounded=1;whiteSpace=wrap;html=1;fillColor=#008a00;fontColor=#ffffff;strokeColor=#005700;" vertex="1" parent="1">
                    <mxGeometry x="107.5" y="-860" width="120" height="60" as="geometry"/>
                </mxCell>
                <mxCell id="35" value="" style="shape=crossbar;whiteSpace=wrap;html=1;rounded=1;direction=south;" vertex="1" parent="1">
                    <mxGeometry x="-65" y="-710" width="20" height="30" as="geometry"/>
                </mxCell>
                <mxCell id="36" value="" style="shape=crossbar;whiteSpace=wrap;html=1;rounded=1;direction=south;" vertex="1" parent="1">
                    <mxGeometry x="-70" y="-620" width="20" height="30" as="geometry"/>
                </mxCell>
                <mxCell id="37" value="" style="shape=crossbar;whiteSpace=wrap;html=1;rounded=1;direction=south;" vertex="1" parent="1">
                    <mxGeometry x="-70" y="-530" width="20" height="30" as="geometry"/>
                </mxCell>
                <mxCell id="40" value="" style="line;strokeWidth=4;html=1;perimeter=backbonePerimeter;points=[];outlineConnect=0;fontSize=13;rotation=-30;" vertex="1" parent="1">
                    <mxGeometry x="0.4300000000000068" y="-525.47" width="88.1" height="10" as="geometry"/>
                </mxCell>
                <mxCell id="41" value="" style="line;strokeWidth=4;html=1;perimeter=backbonePerimeter;points=[];outlineConnect=0;fontSize=13;rotation=-90;" vertex="1" parent="1">
                    <mxGeometry x="-84.75999999999999" y="-414.75" width="59.52" height="10" as="geometry"/>
                </mxCell>
                <mxCell id="43" value="" style="shape=flexArrow;endArrow=classic;startArrow=classic;html=1;fontSize=13;entryX=0;entryY=0.5;entryDx=0;entryDy=0;fillColor=#f5f5f5;gradientColor=#b3b3b3;strokeColor=#666666;" edge="1" parent="1" target="12">
                    <mxGeometry width="100" height="100" relative="1" as="geometry">
                        <mxPoint x="7.5" y="-560" as="sourcePoint"/>
                        <mxPoint x="70" y="-620" as="targetPoint"/>
                    </mxGeometry>
                </mxCell>
                <mxCell id="46" value="" style="shape=flexArrow;endArrow=classic;startArrow=classic;html=1;fontSize=13;entryX=0;entryY=0.5;entryDx=0;entryDy=0;fillColor=#f5f5f5;gradientColor=#b3b3b3;strokeColor=#666666;width=9;endSize=7.71;startSize=5.6;exitX=1;exitY=0;exitDx=0;exitDy=0;" edge="1" parent="1" source="10">
                    <mxGeometry width="100" height="100" relative="1" as="geometry">
                        <mxPoint x="16.03" y="-394.75" as="sourcePoint"/>
                        <mxPoint x="88.53" y="-404.75" as="targetPoint"/>
                    </mxGeometry>
                </mxCell>
                <mxCell id="47" value="" style="line;strokeWidth=4;html=1;perimeter=backbonePerimeter;points=[];outlineConnect=0;fontSize=13;rotation=-90;" vertex="1" parent="1">
                    <mxGeometry x="135" y="-335" width="149.52" height="10" as="geometry"/>
                </mxCell>
            </root>
        </mxGraphModel>
    </diagram>
</mxfile>